<?xml version="1.0" encoding="utf-8"?>
<!-- Generator: Adobe Illustrator 24.2.1, SVG Export Plug-In . SVG Version: 6.00 Build 0)  -->
<svg version="1.1" id="Layer_1" xmlns="http://www.w3.org/2000/svg" xmlns:xlink="http://www.w3.org/1999/xlink" x="0px" y="0px"
	 viewBox="0 0 16 16" style="enable-background:new 0 0 16 16;" xml:space="preserve">
<style type="text/css">
	.st0{fill:#FFFFFF;}
	.st1{fill:#3536E5;}
</style>
<circle class="st0" cx="8" cy="8" r="7"/>
<path class="st1" d="M1,8c0,3.9,3.1,7,7,7s7-3.1,7-7c0-3.9-3.1-7-7-7C5.8,1,3.9,2,2.6,3.6c1.5,0.3,2.6,1.1,3.7,3.1
	c1.3,2.3,1,4,1.8,4c1.1,0,1.3-3.4,1.6-4.2h1.7c-0.1,0.5-0.9,3.9-1.2,4.5c-0.6,1.1-1.4,1.3-2,1.3c-1.6,0-2-1.3-2.3-2.3
	c-0.3-1-0.6-1.8-1-2.5C3.5,4.9,1.7,5.1,1.6,5.1C1.2,6,1,7,1,8z"/>
</svg>
